<svg xmlns="http://www.w3.org/2000/svg" width="254.5" height="40.137" viewBox="0 0 254.5 40.137"><defs><style>.a{fill:#fff;}</style></defs><g transform="translate(281.391 -152.039)"><path class="a" d="M-270.374,158.442a6.176,6.176,0,0,1,6.108,6.092l0,20.017A2.454,2.454,0,0,0-261.819,187a2.455,2.455,0,0,0,2.452-2.452l.01-19.918a6.183,6.183,0,0,1,6.088-6.191,6.152,6.152,0,0,1,6.1,6.191v19.825a2.454,2.454,0,0,0,2.45,2.452,2.455,2.455,0,0,0,2.454-2.452V164.633a11.061,11.061,0,0,0-11-11.1,10.857,10.857,0,0,0-7.949,3.447l-.6.631-.6-.631a10.876,10.876,0,0,0-7.959-3.447,11.069,11.069,0,0,0-11.017,11.1v19.918A2.454,2.454,0,0,0-278.939,187a2.455,2.455,0,0,0,2.454-2.452V164.633A6.158,6.158,0,0,1-270.374,158.442Z" transform="translate(0 0.903)"/><path class="a" d="M-227.923,158.442a6.176,6.176,0,0,1,6.108,6.092l0,20.017A2.455,2.455,0,0,0-219.367,187a2.454,2.454,0,0,0,2.452-2.452l.008-19.918a6.182,6.182,0,0,1,6.088-6.191,6.151,6.151,0,0,1,6.1,6.191v19.825a2.454,2.454,0,0,0,2.452,2.452,2.455,2.455,0,0,0,2.452-2.452V164.633a11.061,11.061,0,0,0-11-11.1,10.854,10.854,0,0,0-7.948,3.447l-.6.631-.6-.631a10.875,10.875,0,0,0-7.959-3.447,11.069,11.069,0,0,0-11.017,11.1v19.918A2.455,2.455,0,0,0-236.488,187a2.454,2.454,0,0,0,2.452-2.452V164.633A6.159,6.159,0,0,1-227.923,158.442Z" transform="translate(25.583 0.903)"/><path class="a" d="M-247.151,153.6a2.455,2.455,0,0,0-2.452,2.452v28.388a2.455,2.455,0,0,0,2.452,2.452,2.456,2.456,0,0,0,2.452-2.452V156.047A2.456,2.456,0,0,0-247.151,153.6Z" transform="translate(19.157 0.938)"/><g transform="translate(-151.945 152.039)"><path class="a" d="M-200.506,163.4v-8.077a.766.766,0,0,1,.756-.755.76.76,0,0,1,.756.755v.01a2.785,2.785,0,0,1,1.982-.764,2.884,2.884,0,0,1,2.47,1.189,3.241,3.241,0,0,1,2.535-1.189,2.921,2.921,0,0,1,3.034,3.181V163.4a.76.76,0,0,1-.756.756.76.76,0,0,1-.756-.756v-5.459a1.69,1.69,0,0,0-1.752-1.917,1.683,1.683,0,0,0-1.741,1.917V163.4a.767.767,0,0,1-.758.756.767.767,0,0,1-.764-.756v-5.459a1.683,1.683,0,0,0-1.744-1.917,1.689,1.689,0,0,0-1.75,1.917V163.4a.76.76,0,0,1-.756.756A.766.766,0,0,1-200.506,163.4Z" transform="translate(200.69 -150.514)"/><path class="a" d="M-189.184,153.368a.936.936,0,0,1,.941-.933.93.93,0,0,1,.939.933.935.935,0,0,1-.939.958A.941.941,0,0,1-189.184,153.368Zm.184,11.321v-8.077a.766.766,0,0,1,.756-.755.759.759,0,0,1,.755.755v8.077a.76.76,0,0,1-.755.756A.766.766,0,0,1-189,164.689Z" transform="translate(207.513 -151.8)"/><path class="a" d="M-183.883,160.82v-2.914a3.135,3.135,0,0,1,3.265-3.337,3.145,3.145,0,0,1,3.2,3,.731.731,0,0,1-.737.766.777.777,0,0,1-.776-.739,1.665,1.665,0,0,0-1.686-1.566,1.69,1.69,0,0,0-1.752,1.917v2.84a1.689,1.689,0,0,0,1.752,1.917,1.7,1.7,0,0,0,1.705-1.567.765.765,0,0,1,.756-.736.735.735,0,0,1,.737.764,3.127,3.127,0,0,1-3.2,3A3.136,3.136,0,0,1-183.883,160.82Z" transform="translate(210.708 -150.514)"/><path class="a" d="M-175.607,163.4v-8.077a.766.766,0,0,1,.755-.755.76.76,0,0,1,.756.755v.01a2.592,2.592,0,0,1,1.882-.764,2.849,2.849,0,0,1,2.369,1.236.731.731,0,0,1,.13.405.737.737,0,0,1-.737.755.82.82,0,0,1-.628-.3,1.959,1.959,0,0,0-1.43-.635c-.986,0-1.585.774-1.585,1.917V163.4a.76.76,0,0,1-.756.756A.766.766,0,0,1-175.607,163.4Z" transform="translate(215.696 -150.514)"/><path class="a" d="M-168.156,160.82v-2.914a3.134,3.134,0,0,1,3.263-3.337,3.127,3.127,0,0,1,3.255,3.337v2.914a3.129,3.129,0,0,1-3.255,3.338A3.136,3.136,0,0,1-168.156,160.82Zm5.007-.037v-2.84a1.683,1.683,0,0,0-1.744-1.917,1.69,1.69,0,0,0-1.752,1.917v2.84a1.689,1.689,0,0,0,1.752,1.917A1.683,1.683,0,0,0-163.149,160.783Z" transform="translate(220.186 -150.514)"/><path class="a" d="M-159.847,164.927V152.794a.763.763,0,0,1,.755-.755.759.759,0,0,1,.756.755v4.056a2.778,2.778,0,0,1,1.973-.755,2.924,2.924,0,0,1,3.043,3.181V162.5a2.925,2.925,0,0,1-3.043,3.181,2.772,2.772,0,0,1-1.973-.756.76.76,0,0,1-.756.756A.765.765,0,0,1-159.847,164.927Zm5.007-2.619v-2.84a1.684,1.684,0,0,0-1.744-1.917,1.69,1.69,0,0,0-1.752,1.917v2.84a1.689,1.689,0,0,0,1.752,1.917A1.683,1.683,0,0,0-154.84,162.309Z" transform="translate(225.193 -152.039)"/><path class="a" d="M-151.648,153.368a.937.937,0,0,1,.941-.933.931.931,0,0,1,.941.933.936.936,0,0,1-.941.958A.942.942,0,0,1-151.648,153.368Zm.184,11.321v-8.077a.766.766,0,0,1,.756-.755.759.759,0,0,1,.755.755v8.077a.76.76,0,0,1-.755.756A.766.766,0,0,1-151.464,164.689Z" transform="translate(230.134 -151.8)"/><path class="a" d="M-146.346,160.82v-2.914a3.134,3.134,0,0,1,3.263-3.337,3.127,3.127,0,0,1,3.255,3.337v2.914a3.129,3.129,0,0,1-3.255,3.338A3.136,3.136,0,0,1-146.346,160.82Zm5.007-.037v-2.84a1.684,1.684,0,0,0-1.744-1.917,1.69,1.69,0,0,0-1.752,1.917v2.84a1.689,1.689,0,0,0,1.752,1.917A1.683,1.683,0,0,0-141.339,160.783Z" transform="translate(233.33 -150.514)"/><path class="a" d="M-138.037,163.4v-8.077a.766.766,0,0,1,.756-.755.758.758,0,0,1,.755.755v.01a2.791,2.791,0,0,1,1.984-.764,2.884,2.884,0,0,1,2.47,1.189,3.241,3.241,0,0,1,2.535-1.189,2.92,2.92,0,0,1,3.032,3.181V163.4a.76.76,0,0,1-.755.756.76.76,0,0,1-.756-.756v-5.459a1.69,1.69,0,0,0-1.752-1.917,1.683,1.683,0,0,0-1.742,1.917V163.4a.765.765,0,0,1-.756.756.767.767,0,0,1-.764-.756v-5.459a1.683,1.683,0,0,0-1.744-1.917,1.69,1.69,0,0,0-1.752,1.917V163.4a.759.759,0,0,1-.755.756A.766.766,0,0,1-138.037,163.4Z" transform="translate(238.337 -150.514)"/><path class="a" d="M-126.658,160.82v-2.914a3.134,3.134,0,0,1,3.263-3.337,3.127,3.127,0,0,1,3.255,3.337v1.236a.748.748,0,0,1-.755.756h-4.252v.968A1.625,1.625,0,0,0-123.4,162.7a2.043,2.043,0,0,0,1.761-1.05.73.73,0,0,1,.59-.332.687.687,0,0,1,.72.7,1.033,1.033,0,0,1-.213.6,3.334,3.334,0,0,1-2.858,1.54A3.136,3.136,0,0,1-126.658,160.82Zm1.511-2.332h3.5v-.545a1.683,1.683,0,0,0-1.744-1.917,1.69,1.69,0,0,0-1.752,1.917Z" transform="translate(245.194 -150.514)"/><path class="a" d="M-200.621,167.368a.937.937,0,0,1,.941-.933.931.931,0,0,1,.941.933.936.936,0,0,1-.941.958A.942.942,0,0,1-200.621,167.368Zm.184,11.321v-8.077a.766.766,0,0,1,.756-.755.76.76,0,0,1,.756.755v8.077a.76.76,0,0,1-.756.756A.766.766,0,0,1-200.437,178.689Z" transform="translate(200.621 -143.363)"/><path class="a" d="M-195.262,177.4v-8.077a.766.766,0,0,1,.756-.755.76.76,0,0,1,.756.755v.01a2.784,2.784,0,0,1,1.982-.764,2.884,2.884,0,0,1,2.47,1.189,3.244,3.244,0,0,1,2.535-1.189,2.921,2.921,0,0,1,3.034,3.181V177.4a.76.76,0,0,1-.756.756.76.76,0,0,1-.756-.756v-5.459a1.689,1.689,0,0,0-1.75-1.917,1.683,1.683,0,0,0-1.742,1.917V177.4a.767.767,0,0,1-.758.756.765.765,0,0,1-.763-.756v-5.459A1.684,1.684,0,0,0-192,170.027a1.69,1.69,0,0,0-1.752,1.917V177.4a.76.76,0,0,1-.756.756A.766.766,0,0,1-195.262,177.4Z" transform="translate(203.851 -142.077)"/><path class="a" d="M-183.825,177.4v-8.077a.766.766,0,0,1,.756-.755.759.759,0,0,1,.755.755v.01a2.791,2.791,0,0,1,1.984-.764,2.884,2.884,0,0,1,2.47,1.189,3.241,3.241,0,0,1,2.535-1.189,2.92,2.92,0,0,1,3.032,3.181V177.4a.76.76,0,0,1-.755.756.76.76,0,0,1-.756-.756v-5.459a1.69,1.69,0,0,0-1.752-1.917,1.683,1.683,0,0,0-1.742,1.917V177.4a.766.766,0,0,1-.755.756.767.767,0,0,1-.766-.756v-5.459a1.683,1.683,0,0,0-1.744-1.917,1.69,1.69,0,0,0-1.752,1.917V177.4a.76.76,0,0,1-.755.756A.766.766,0,0,1-183.825,177.4Z" transform="translate(210.743 -142.077)"/><path class="a" d="M-172.445,174.977v-5.653a.766.766,0,0,1,.756-.755.768.768,0,0,1,.764.755v5.459a1.682,1.682,0,0,0,1.742,1.917,1.689,1.689,0,0,0,1.753-1.917v-5.459a.759.759,0,0,1,.755-.755.766.766,0,0,1,.756.755V177.4a.766.766,0,0,1-.756.756.76.76,0,0,1-.755-.756v-.01a2.8,2.8,0,0,1-1.984.766A2.92,2.92,0,0,1-172.445,174.977Z" transform="translate(217.601 -142.077)"/><path class="a" d="M-164.073,177.4v-8.077a.766.766,0,0,1,.756-.755.759.759,0,0,1,.755.755v.01a2.791,2.791,0,0,1,1.984-.764,2.92,2.92,0,0,1,3.032,3.181V177.4a.766.766,0,0,1-.755.756.767.767,0,0,1-.766-.756v-5.459a1.683,1.683,0,0,0-1.744-1.917,1.69,1.69,0,0,0-1.752,1.917V177.4a.76.76,0,0,1-.755.756A.766.766,0,0,1-164.073,177.4Z" transform="translate(222.646 -142.077)"/><path class="a" d="M-155.874,167.368a.937.937,0,0,1,.941-.933.931.931,0,0,1,.941.933.936.936,0,0,1-.941.958A.942.942,0,0,1-155.874,167.368Zm.184,11.321v-8.077a.766.766,0,0,1,.756-.755.76.76,0,0,1,.756.755v8.077a.76.76,0,0,1-.756.756A.766.766,0,0,1-155.69,178.689Z" transform="translate(227.588 -143.363)"/><path class="a" d="M-149.794,177.021v-5.872h-.481a.7.7,0,0,1-.7-.71.694.694,0,0,1,.7-.7h.481v-2.047a.76.76,0,0,1,.756-.756.76.76,0,0,1,.755.756v2.047h.776a.688.688,0,0,1,.7.7.7.7,0,0,1-.7.71h-.776v5.532c0,.644.24.811.849,1.032a.7.7,0,0,1,.551.71.7.7,0,0,1-.774.72A2.114,2.114,0,0,1-149.794,177.021Z" transform="translate(230.541 -143.061)"/><path class="a" d="M-143.339,181.476a.826.826,0,0,1,.064-.313l1.3-3.725-2.729-7.818a.739.739,0,0,1-.056-.314.753.753,0,0,1,.774-.737.735.735,0,0,1,.71.543l2.1,6.215,2.1-6.215a.739.739,0,0,1,.712-.543.753.753,0,0,1,.774.737.762.762,0,0,1-.056.314l-4.2,12.049a.755.755,0,0,1-.718.543A.753.753,0,0,1-143.339,181.476Z" transform="translate(234.286 -142.077)"/></g></g></svg>