<svg xmlns="http://www.w3.org/2000/svg" width="57.503" height="57.49" viewBox="0 0 57.503 57.49"><defs><style>.a{fill:#fff;}</style></defs><path class="a" d="M28.752,16.243a14.74,14.74,0,1,0,14.74,14.74A14.716,14.716,0,0,0,28.752,16.243Zm0,24.322a9.583,9.583,0,1,1,9.583-9.583,9.6,9.6,0,0,1-9.583,9.583ZM47.533,15.64A3.438,3.438,0,1,1,44.1,12.2,3.43,3.43,0,0,1,47.533,15.64ZM57.3,19.129c-.218-4.605-1.27-8.685-4.644-12.046S45.211,2.671,40.606,2.44c-4.746-.269-18.973-.269-23.719,0-4.593.218-8.672,1.27-12.046,4.631S.428,14.511.2,19.116c-.269,4.746-.269,18.973,0,23.719.218,4.605,1.27,8.685,4.644,12.046s7.44,4.413,12.046,4.644c4.746.269,18.973.269,23.719,0,4.605-.218,8.685-1.27,12.046-4.644s4.413-7.44,4.644-12.046c.269-4.746.269-18.96,0-23.707Zm-6.132,28.8A9.7,9.7,0,0,1,45.7,53.394c-3.784,1.5-12.764,1.155-16.946,1.155s-13.175.334-16.946-1.155a9.7,9.7,0,0,1-5.465-5.465c-1.5-3.784-1.155-12.764-1.155-16.946S4.853,17.808,6.341,14.036a9.7,9.7,0,0,1,5.465-5.465c3.784-1.5,12.764-1.155,16.946-1.155S41.927,7.084,45.7,8.572a9.7,9.7,0,0,1,5.465,5.465c1.5,3.784,1.155,12.764,1.155,16.946S52.664,44.157,51.163,47.929Z" transform="translate(0.005 -2.238)"/></svg>